<svg xmlns="http://www.w3.org/2000/svg" xmlns:xlink="http://www.w3.org/1999/xlink" width="50" zoomAndPan="magnify" viewBox="0 0 37.5 37.499999" height="50" preserveAspectRatio="xMidYMid meet" version="1.0"><defs><clipPath id="18ccacc5dc"><path d="M 8.382812 10.738281 L 29.277344 10.738281 L 29.277344 26.910156 L 8.382812 26.910156 Z M 8.382812 10.738281 " clip-rule="nonzero"/></clipPath></defs><path fill="#ffffff" d="M 18.660156 1.34375 L 19.078125 1.351562 C 19.175781 1.351562 19.300781 1.34375 19.382812 1.359375 C 19.507812 1.386719 19.640625 1.351562 19.753906 1.375 L 19.894531 1.375 C 20 1.398438 20.132812 1.386719 20.234375 1.40625 L 20.421875 1.417969 C 20.585938 1.453125 20.78125 1.441406 20.941406 1.480469 L 21.128906 1.496094 C 21.363281 1.550781 21.621094 1.554688 21.847656 1.613281 C 21.953125 1.640625 22.046875 1.632812 22.152344 1.660156 C 22.53125 1.757812 22.929688 1.8125 23.285156 1.925781 C 23.476562 1.988281 23.664062 2.015625 23.851562 2.078125 C 24.402344 2.261719 24.953125 2.4375 25.464844 2.660156 C 26.117188 2.941406 26.757812 3.210938 27.335938 3.5625 C 27.429688 3.621094 27.527344 3.65625 27.621094 3.714844 C 28.0625 3.984375 28.503906 4.257812 28.925781 4.554688 C 29.210938 4.753906 29.480469 4.976562 29.757812 5.183594 C 30.042969 5.394531 30.289062 5.664062 30.570312 5.875 L 30.640625 5.953125 C 30.683594 5.992188 30.722656 6.023438 30.765625 6.058594 C 30.8125 6.105469 30.855469 6.152344 30.898438 6.199219 C 31.035156 6.300781 31.144531 6.433594 31.261719 6.554688 C 31.433594 6.722656 31.617188 6.894531 31.765625 7.089844 C 31.820312 7.160156 31.90625 7.21875 31.960938 7.292969 C 32.148438 7.539062 32.371094 7.753906 32.550781 8 C 32.988281 8.59375 33.421875 9.195312 33.820312 9.832031 C 34.328125 10.652344 34.734375 11.5625 35.125 12.5 C 35.363281 13.074219 35.515625 13.691406 35.714844 14.308594 C 35.800781 14.574219 35.835938 14.859375 35.910156 15.128906 C 36.003906 15.460938 36.019531 15.816406 36.101562 16.15625 L 36.21875 17.101562 C 36.246094 17.222656 36.226562 17.351562 36.25 17.464844 C 36.257812 17.632812 36.265625 17.800781 36.273438 17.96875 C 36.300781 18.097656 36.261719 18.28125 36.289062 18.414062 C 36.316406 18.542969 36.296875 18.722656 36.296875 18.863281 C 36.296875 18.980469 36.3125 19.125 36.289062 19.226562 C 36.285156 19.375 36.285156 19.523438 36.28125 19.675781 C 36.261719 19.761719 36.285156 19.863281 36.265625 19.957031 C 36.246094 20.203125 36.222656 20.449219 36.203125 20.699219 C 36.171875 20.824219 36.1875 20.964844 36.15625 21.097656 C 36.066406 21.476562 36.054688 21.886719 35.957031 22.246094 C 35.949219 22.3125 35.9375 22.378906 35.925781 22.445312 C 35.824219 22.808594 35.773438 23.183594 35.660156 23.539062 C 35.417969 24.273438 35.207031 24.992188 34.914062 25.667969 C 34.421875 26.800781 33.84375 27.851562 33.171875 28.808594 C 32.96875 29.101562 32.746094 29.378906 32.535156 29.664062 C 32.453125 29.777344 32.34375 29.875 32.261719 29.988281 C 32.09375 30.210938 31.890625 30.398438 31.726562 30.617188 L 31.523438 30.820312 C 31.460938 30.902344 31.375 30.957031 31.316406 31.035156 C 31.234375 31.140625 31.140625 31.234375 31.035156 31.316406 C 30.996094 31.359375 30.957031 31.402344 30.917969 31.441406 C 30.816406 31.542969 30.710938 31.640625 30.601562 31.726562 C 30.578125 31.753906 30.554688 31.777344 30.53125 31.804688 C 30.378906 31.921875 30.25 32.066406 30.097656 32.183594 C 29.773438 32.425781 29.472656 32.703125 29.136719 32.9375 C 28.734375 33.222656 28.324219 33.496094 27.902344 33.765625 C 27.640625 33.929688 27.359375 34.066406 27.09375 34.226562 C 27 34.285156 26.898438 34.316406 26.800781 34.371094 C 26.632812 34.460938 26.457031 34.546875 26.273438 34.628906 C 26.078125 34.714844 25.871094 34.824219 25.667969 34.914062 C 25.171875 35.128906 24.648438 35.3125 24.121094 35.488281 C 23.613281 35.652344 23.085938 35.753906 22.554688 35.902344 C 22.34375 35.960938 22.125 35.976562 21.917969 36.03125 C 21.59375 36.113281 21.238281 36.105469 20.910156 36.179688 C 20.59375 36.207031 20.273438 36.238281 19.957031 36.265625 C 19.863281 36.285156 19.761719 36.261719 19.675781 36.28125 C 19.539062 36.308594 19.359375 36.269531 19.226562 36.296875 L 18.949219 36.296875 C 18.78125 36.296875 18.570312 36.324219 18.414062 36.289062 C 18.265625 36.285156 18.117188 36.285156 17.96875 36.28125 C 17.882812 36.261719 17.785156 36.285156 17.691406 36.265625 C 17.433594 36.207031 17.128906 36.242188 16.875 36.1875 C 16.6875 36.144531 16.496094 36.167969 16.316406 36.125 C 16.140625 36.082031 15.953125 36.082031 15.773438 36.039062 C 15.386719 35.9375 14.992188 35.898438 14.617188 35.792969 C 14.113281 35.652344 13.589844 35.535156 13.128906 35.34375 C 13.015625 35.296875 12.90625 35.28125 12.792969 35.234375 C 12.472656 35.101562 12.144531 34.988281 11.832031 34.847656 C 11.65625 34.773438 11.476562 34.671875 11.304688 34.597656 C 10.972656 34.449219 10.644531 34.285156 10.34375 34.101562 C 10.175781 34 10 33.921875 9.832031 33.820312 C 9.464844 33.589844 9.101562 33.359375 8.746094 33.109375 C 8.558594 32.976562 8.375 32.824219 8.1875 32.6875 C 7.941406 32.503906 7.71875 32.304688 7.472656 32.121094 C 7.363281 32.035156 7.269531 31.929688 7.160156 31.84375 C 7.136719 31.816406 7.113281 31.792969 7.089844 31.765625 C 7.003906 31.699219 6.921875 31.628906 6.84375 31.554688 C 6.808594 31.515625 6.777344 31.480469 6.742188 31.441406 C 6.617188 31.347656 6.515625 31.222656 6.402344 31.113281 C 6.253906 30.964844 6.089844 30.820312 5.964844 30.648438 C 5.863281 30.519531 5.722656 30.417969 5.625 30.285156 C 5.378906 29.960938 5.097656 29.664062 4.855469 29.335938 C 4.105469 28.316406 3.410156 27.207031 2.871094 25.984375 C 2.621094 25.414062 2.390625 24.820312 2.1875 24.207031 C 2.113281 23.988281 2.058594 23.769531 1.992188 23.554688 C 1.960938 23.460938 1.957031 23.378906 1.925781 23.285156 C 1.835938 23.003906 1.789062 22.683594 1.707031 22.386719 C 1.691406 22.292969 1.675781 22.199219 1.660156 22.105469 C 1.589844 21.835938 1.574219 21.527344 1.511719 21.246094 C 1.480469 21.125 1.488281 20.996094 1.464844 20.878906 C 1.429688 20.726562 1.449219 20.566406 1.417969 20.421875 C 1.378906 20.253906 1.414062 20.058594 1.375 19.894531 L 1.375 19.753906 C 1.367188 19.714844 1.378906 19.644531 1.367188 19.597656 C 1.335938 19.441406 1.355469 19.230469 1.351562 19.054688 C 1.351562 18.933594 1.328125 18.773438 1.351562 18.660156 L 1.351562 18.265625 C 1.367188 18.210938 1.347656 18.121094 1.359375 18.054688 C 1.371094 18.011719 1.359375 17.941406 1.367188 17.890625 C 1.414062 17.679688 1.378906 17.433594 1.425781 17.226562 C 1.433594 17.125 1.441406 17.019531 1.449219 16.914062 C 1.46875 16.828125 1.457031 16.730469 1.480469 16.636719 C 1.519531 16.375 1.558594 16.109375 1.597656 15.84375 C 1.679688 15.507812 1.707031 15.160156 1.800781 14.828125 C 1.867188 14.597656 1.90625 14.351562 1.984375 14.121094 C 2.164062 13.558594 2.316406 12.996094 2.535156 12.46875 C 2.898438 11.589844 3.277344 10.734375 3.753906 9.960938 C 4.042969 9.484375 4.347656 9.019531 4.664062 8.566406 C 4.863281 8.28125 5.09375 8.019531 5.300781 7.742188 C 5.515625 7.457031 5.789062 7.21875 6.003906 6.9375 L 6.308594 6.632812 C 6.402344 6.507812 6.507812 6.402344 6.632812 6.308594 C 6.703125 6.253906 6.753906 6.175781 6.828125 6.121094 L 6.9375 6.003906 C 7.078125 5.894531 7.191406 5.753906 7.332031 5.648438 C 7.628906 5.425781 7.898438 5.160156 8.195312 4.941406 C 8.765625 4.523438 9.347656 4.128906 9.960938 3.753906 C 10.132812 3.644531 10.316406 3.570312 10.496094 3.460938 C 10.960938 3.179688 11.488281 2.945312 12.003906 2.722656 C 12.273438 2.605469 12.550781 2.511719 12.824219 2.398438 C 12.960938 2.34375 13.09375 2.316406 13.230469 2.265625 C 13.734375 2.078125 14.285156 1.953125 14.828125 1.800781 C 15.074219 1.734375 15.332031 1.707031 15.574219 1.644531 C 15.917969 1.558594 16.289062 1.558594 16.636719 1.480469 L 17.511719 1.390625 C 17.589844 1.375 17.675781 1.390625 17.746094 1.375 C 17.847656 1.355469 17.960938 1.382812 18.054688 1.359375 L 18.488281 1.351562 C 18.535156 1.351562 18.625 1.367188 18.660156 1.34375 Z M 18.769531 4.019531 C 18.703125 4.058594 18.429688 4.003906 18.328125 4.027344 C 18.222656 4.050781 18.089844 4.019531 17.976562 4.042969 L 17.070312 4.121094 L 16.261719 4.238281 C 16.054688 4.292969 15.832031 4.308594 15.625 4.367188 C 15.199219 4.484375 14.765625 4.578125 14.363281 4.710938 C 14.214844 4.761719 14.074219 4.789062 13.933594 4.847656 C 13.679688 4.949219 13.417969 5.027344 13.167969 5.136719 C 12.527344 5.414062 11.894531 5.707031 11.320312 6.058594 C 10.777344 6.390625 10.261719 6.75 9.753906 7.121094 C 9.542969 7.277344 9.351562 7.464844 9.140625 7.621094 C 9.078125 7.671875 9.023438 7.746094 8.960938 7.796875 C 8.761719 7.945312 8.601562 8.132812 8.425781 8.300781 C 8.304688 8.414062 8.171875 8.527344 8.070312 8.660156 L 7.867188 8.867188 C 7.652344 9.148438 7.386719 9.394531 7.175781 9.683594 C 6.785156 10.210938 6.410156 10.75 6.058594 11.320312 C 5.628906 12.015625 5.300781 12.792969 4.972656 13.585938 C 4.925781 13.695312 4.90625 13.804688 4.863281 13.917969 C 4.644531 14.445312 4.527344 15.039062 4.367188 15.625 C 4.3125 15.898438 4.261719 16.175781 4.207031 16.449219 C 4.171875 16.726562 4.136719 17.003906 4.097656 17.285156 C 4.074219 17.398438 4.089844 17.519531 4.066406 17.628906 C 4.03125 17.792969 4.070312 17.972656 4.035156 18.132812 C 4.03125 18.34375 4.03125 18.558594 4.027344 18.769531 C 4.015625 18.824219 4.027344 18.878906 4.027344 18.941406 C 4.027344 19.0625 4.011719 19.210938 4.035156 19.3125 L 4.035156 19.515625 C 4.070312 19.671875 4.042969 19.859375 4.074219 20.011719 C 4.078125 20.074219 4.082031 20.136719 4.082031 20.203125 C 4.128906 20.402344 4.105469 20.621094 4.152344 20.824219 C 4.199219 21.019531 4.195312 21.230469 4.25 21.429688 C 4.351562 21.832031 4.402344 22.253906 4.523438 22.632812 C 4.609375 22.898438 4.65625 23.152344 4.742188 23.410156 C 4.917969 23.929688 5.113281 24.429688 5.324219 24.914062 C 5.800781 25.992188 6.421875 26.945312 7.078125 27.839844 C 7.257812 28.082031 7.46875 28.292969 7.644531 28.53125 C 7.699219 28.601562 7.78125 28.660156 7.835938 28.730469 C 7.898438 28.8125 7.964844 28.890625 8.039062 28.964844 C 8.078125 29 8.117188 29.039062 8.15625 29.074219 C 8.21875 29.15625 8.292969 29.21875 8.363281 29.289062 C 8.433594 29.359375 8.496094 29.429688 8.574219 29.492188 C 8.597656 29.519531 8.621094 29.542969 8.644531 29.570312 C 8.703125 29.628906 8.769531 29.683594 8.835938 29.734375 C 8.859375 29.761719 8.882812 29.789062 8.90625 29.816406 C 9.019531 29.902344 9.113281 30.011719 9.226562 30.097656 C 9.4375 30.257812 9.632812 30.429688 9.847656 30.585938 C 9.949219 30.660156 10.046875 30.75 10.148438 30.820312 C 10.867188 31.328125 11.628906 31.816406 12.476562 32.191406 C 12.613281 32.25 12.761719 32.332031 12.902344 32.394531 C 13.183594 32.519531 13.480469 32.621094 13.765625 32.742188 C 13.859375 32.777344 13.949219 32.789062 14.042969 32.828125 C 14.429688 32.988281 14.875 33.085938 15.300781 33.207031 C 15.710938 33.320312 16.148438 33.355469 16.574219 33.457031 C 16.730469 33.492188 16.890625 33.488281 17.039062 33.519531 C 17.085938 33.523438 17.132812 33.523438 17.179688 33.527344 C 17.371094 33.570312 17.597656 33.546875 17.792969 33.589844 C 17.882812 33.609375 17.976562 33.589844 18.054688 33.605469 C 18.195312 33.609375 18.335938 33.613281 18.480469 33.613281 C 18.609375 33.640625 18.789062 33.621094 18.933594 33.621094 L 19.164062 33.621094 C 19.292969 33.59375 19.457031 33.636719 19.589844 33.605469 C 19.667969 33.589844 19.765625 33.609375 19.855469 33.589844 C 20.082031 33.570312 20.3125 33.546875 20.539062 33.527344 C 20.828125 33.484375 21.117188 33.445312 21.40625 33.402344 C 21.574219 33.359375 21.757812 33.347656 21.933594 33.300781 C 22.402344 33.167969 22.875 33.078125 23.324219 32.929688 C 27.601562 31.5 30.734375 28.578125 32.457031 24.597656 C 32.707031 24.027344 32.886719 23.417969 33.085938 22.796875 C 33.15625 22.507812 33.230469 22.222656 33.300781 21.933594 C 33.308594 21.867188 33.320312 21.800781 33.332031 21.734375 C 33.410156 21.4375 33.425781 21.105469 33.496094 20.792969 C 33.527344 20.660156 33.515625 20.523438 33.542969 20.398438 C 33.566406 20.128906 33.585938 19.859375 33.605469 19.589844 C 33.617188 19.535156 33.605469 19.460938 33.613281 19.414062 L 33.613281 19.164062 C 33.636719 19.066406 33.621094 18.925781 33.621094 18.816406 C 33.621094 18.710938 33.632812 18.574219 33.613281 18.480469 C 33.585938 18.34375 33.625 18.179688 33.597656 18.054688 C 33.59375 17.929688 33.589844 17.808594 33.582031 17.683594 C 33.5625 17.597656 33.582031 17.5 33.558594 17.410156 C 33.523438 17.132812 33.492188 16.851562 33.457031 16.574219 C 33.375 16.230469 33.355469 15.871094 33.261719 15.535156 C 33.210938 15.359375 33.183594 15.171875 33.125 14.992188 C 32.949219 14.453125 32.816406 13.914062 32.609375 13.414062 C 32.40625 12.925781 32.195312 12.390625 31.929688 11.957031 C 31.855469 11.835938 31.816406 11.707031 31.742188 11.585938 C 31.378906 10.996094 31.019531 10.421875 30.617188 9.871094 C 30.367188 9.535156 30.066406 9.238281 29.816406 8.90625 C 29.789062 8.882812 29.761719 8.859375 29.734375 8.835938 C 29.683594 8.769531 29.628906 8.703125 29.570312 8.644531 C 29.542969 8.621094 29.519531 8.597656 29.492188 8.574219 C 29.417969 8.476562 29.324219 8.402344 29.242188 8.316406 C 29.136719 8.210938 29.035156 8.097656 28.917969 8.007812 C 28.828125 7.941406 28.757812 7.832031 28.667969 7.765625 C 28.414062 7.574219 28.191406 7.355469 27.933594 7.167969 C 27.777344 7.050781 27.628906 6.917969 27.46875 6.804688 C 26.792969 6.328125 26.054688 5.847656 25.261719 5.5 C 25.027344 5.398438 24.789062 5.269531 24.550781 5.167969 C 24.300781 5.058594 24.035156 4.972656 23.78125 4.871094 C 23.496094 4.753906 23.167969 4.675781 22.867188 4.578125 C 22.785156 4.550781 22.714844 4.550781 22.632812 4.523438 C 22.394531 4.445312 22.125 4.402344 21.878906 4.335938 L 21.59375 4.289062 C 21.40625 4.238281 21.183594 4.222656 20.988281 4.175781 L 20.761719 4.152344 C 20.613281 4.121094 20.433594 4.125 20.28125 4.089844 L 20.105469 4.082031 C 20.015625 4.0625 19.894531 4.070312 19.800781 4.050781 L 19.667969 4.050781 C 19.558594 4.027344 19.429688 4.0625 19.3125 4.035156 C 19.179688 4.007812 18.914062 4.019531 18.769531 4.019531 Z M 18.769531 4.019531 " fill-opacity="1" fill-rule="evenodd"/><path fill="#ffffff" d="M 13.398438 24.957031 C 13.398438 24.976562 13.394531 24.992188 13.386719 25.011719 C 13.378906 25.027344 13.371094 25.042969 13.359375 25.058594 C 13.347656 25.070312 13.332031 25.082031 13.316406 25.089844 C 13.296875 25.097656 13.28125 25.105469 13.261719 25.105469 C 13.242188 25.105469 13.226562 25.097656 13.210938 25.089844 C 13.195312 25.082031 13.179688 25.070312 13.167969 25.058594 C 13.152344 25.042969 13.144531 25.027344 13.136719 25.011719 C 13.132812 24.992188 13.128906 24.976562 13.128906 24.957031 L 13.128906 20.367188 C 13.128906 20.347656 13.132812 20.332031 13.136719 20.316406 C 13.144531 20.300781 13.15625 20.285156 13.167969 20.273438 C 13.179688 20.257812 13.195312 20.25 13.210938 20.242188 C 13.226562 20.234375 13.246094 20.234375 13.261719 20.234375 C 13.28125 20.234375 13.296875 20.234375 13.3125 20.242188 C 13.332031 20.25 13.34375 20.257812 13.359375 20.273438 C 13.371094 20.285156 13.378906 20.300781 13.386719 20.316406 C 13.394531 20.332031 13.398438 20.347656 13.398438 20.367188 Z M 13.398438 24.957031 " fill-opacity="1" fill-rule="nonzero"/><path fill="#ffffff" d="M 13.980469 24.421875 C 13.980469 24.4375 13.976562 24.453125 13.96875 24.46875 C 13.964844 24.484375 13.957031 24.5 13.945312 24.511719 C 13.933594 24.523438 13.921875 24.53125 13.90625 24.539062 C 13.890625 24.546875 13.875 24.554688 13.859375 24.554688 C 13.839844 24.554688 13.824219 24.550781 13.808594 24.542969 C 13.792969 24.539062 13.777344 24.527344 13.765625 24.515625 C 13.75 24.503906 13.742188 24.488281 13.734375 24.472656 C 13.730469 24.457031 13.726562 24.4375 13.726562 24.421875 L 13.726562 20.917969 C 13.726562 20.902344 13.730469 20.882812 13.734375 20.867188 C 13.742188 20.851562 13.75 20.835938 13.765625 20.824219 C 13.777344 20.8125 13.792969 20.800781 13.808594 20.792969 C 13.824219 20.789062 13.839844 20.785156 13.859375 20.785156 C 13.875 20.785156 13.890625 20.789062 13.90625 20.796875 C 13.921875 20.804688 13.933594 20.816406 13.945312 20.828125 C 13.957031 20.839844 13.964844 20.855469 13.96875 20.871094 C 13.976562 20.886719 13.980469 20.902344 13.980469 20.917969 Z M 13.980469 24.421875 " fill-opacity="1" fill-rule="nonzero"/><path fill="#ffffff" d="M 14.574219 23.792969 C 14.574219 23.8125 14.574219 23.828125 14.566406 23.84375 C 14.5625 23.859375 14.554688 23.871094 14.542969 23.882812 C 14.53125 23.898438 14.519531 23.90625 14.503906 23.914062 C 14.488281 23.921875 14.472656 23.925781 14.457031 23.929688 L 14.351562 23.929688 C 14.335938 23.925781 14.320312 23.921875 14.304688 23.914062 C 14.289062 23.90625 14.277344 23.898438 14.265625 23.882812 C 14.253906 23.871094 14.246094 23.859375 14.242188 23.84375 C 14.234375 23.828125 14.234375 23.8125 14.234375 23.792969 L 14.234375 21.53125 C 14.234375 21.515625 14.238281 21.5 14.246094 21.484375 C 14.25 21.472656 14.261719 21.460938 14.269531 21.449219 C 14.28125 21.4375 14.292969 21.429688 14.308594 21.421875 C 14.320312 21.414062 14.335938 21.410156 14.351562 21.410156 L 14.441406 21.410156 C 14.457031 21.410156 14.472656 21.414062 14.484375 21.421875 C 14.5 21.429688 14.511719 21.4375 14.523438 21.449219 C 14.535156 21.460938 14.542969 21.472656 14.546875 21.484375 C 14.554688 21.5 14.558594 21.515625 14.5625 21.53125 Z M 14.574219 23.792969 " fill-opacity="1" fill-rule="nonzero"/><path fill="#ffffff" d="M 15.15625 24.332031 C 15.15625 24.347656 15.15625 24.367188 15.148438 24.382812 C 15.140625 24.398438 15.132812 24.414062 15.117188 24.425781 C 15.105469 24.4375 15.089844 24.449219 15.074219 24.457031 C 15.058594 24.460938 15.042969 24.464844 15.023438 24.464844 C 15.003906 24.464844 14.988281 24.460938 14.972656 24.457031 C 14.957031 24.449219 14.941406 24.4375 14.929688 24.425781 C 14.917969 24.414062 14.90625 24.398438 14.898438 24.382812 C 14.894531 24.367188 14.890625 24.347656 14.890625 24.332031 L 14.890625 21.007812 C 14.890625 20.988281 14.890625 20.972656 14.898438 20.953125 C 14.90625 20.9375 14.914062 20.921875 14.925781 20.90625 C 14.941406 20.894531 14.953125 20.882812 14.972656 20.875 C 14.988281 20.867188 15.003906 20.859375 15.023438 20.859375 C 15.042969 20.859375 15.058594 20.867188 15.078125 20.875 C 15.09375 20.882812 15.105469 20.894531 15.121094 20.90625 C 15.132812 20.921875 15.140625 20.9375 15.148438 20.953125 C 15.15625 20.972656 15.15625 20.988281 15.15625 21.007812 Z M 15.15625 24.332031 " fill-opacity="1" fill-rule="nonzero"/><path fill="#ffffff" d="M 15.753906 24.6875 C 15.753906 24.707031 15.75 24.726562 15.746094 24.742188 C 15.738281 24.761719 15.730469 24.777344 15.714844 24.789062 C 15.703125 24.804688 15.691406 24.8125 15.671875 24.824219 C 15.65625 24.832031 15.640625 24.835938 15.621094 24.839844 C 15.601562 24.835938 15.585938 24.832031 15.566406 24.824219 C 15.550781 24.8125 15.539062 24.804688 15.523438 24.789062 C 15.511719 24.777344 15.503906 24.761719 15.496094 24.742188 C 15.488281 24.726562 15.488281 24.707031 15.488281 24.6875 L 15.488281 20.636719 C 15.488281 20.617188 15.488281 20.601562 15.496094 20.582031 C 15.503906 20.566406 15.511719 20.554688 15.527344 20.539062 C 15.539062 20.527344 15.554688 20.519531 15.570312 20.511719 C 15.585938 20.503906 15.601562 20.5 15.621094 20.5 C 15.636719 20.5 15.65625 20.503906 15.671875 20.511719 C 15.6875 20.519531 15.703125 20.527344 15.714844 20.539062 C 15.726562 20.554688 15.738281 20.566406 15.746094 20.582031 C 15.75 20.601562 15.753906 20.617188 15.753906 20.636719 Z M 15.753906 24.6875 " fill-opacity="1" fill-rule="nonzero"/><path fill="#ffffff" d="M 16.171875 19.203125 L 16.203125 19.203125 C 16.222656 19.203125 16.242188 19.207031 16.261719 19.214844 C 16.277344 19.222656 16.292969 19.234375 16.308594 19.246094 C 16.324219 19.261719 16.332031 19.277344 16.339844 19.296875 C 16.347656 19.316406 16.351562 19.332031 16.351562 19.351562 L 16.351562 25.984375 C 16.351562 26.003906 16.347656 26.023438 16.339844 26.042969 C 16.332031 26.0625 16.324219 26.078125 16.308594 26.089844 C 16.292969 26.105469 16.277344 26.117188 16.261719 26.125 C 16.242188 26.132812 16.222656 26.132812 16.203125 26.132812 L 16.171875 26.132812 C 16.152344 26.132812 16.132812 26.132812 16.117188 26.125 C 16.097656 26.117188 16.082031 26.105469 16.066406 26.089844 C 16.054688 26.078125 16.042969 26.0625 16.035156 26.042969 C 16.027344 26.023438 16.023438 26.003906 16.023438 25.984375 L 16.023438 19.351562 C 16.023438 19.332031 16.027344 19.316406 16.035156 19.296875 C 16.042969 19.277344 16.054688 19.261719 16.066406 19.246094 C 16.082031 19.234375 16.097656 19.222656 16.117188 19.214844 C 16.132812 19.207031 16.152344 19.203125 16.171875 19.203125 Z M 16.171875 19.203125 " fill-opacity="1" fill-rule="nonzero"/><path fill="#ffffff" d="M 16.753906 20.308594 L 16.785156 20.308594 C 16.804688 20.308594 16.824219 20.3125 16.84375 20.320312 C 16.859375 20.324219 16.875 20.335938 16.890625 20.351562 C 16.90625 20.363281 16.914062 20.382812 16.921875 20.398438 C 16.929688 20.417969 16.933594 20.4375 16.933594 20.457031 L 16.933594 24.882812 C 16.933594 24.902344 16.929688 24.921875 16.921875 24.941406 C 16.914062 24.957031 16.90625 24.972656 16.890625 24.988281 C 16.875 25.003906 16.859375 25.011719 16.84375 25.019531 C 16.824219 25.027344 16.804688 25.03125 16.785156 25.03125 L 16.753906 25.03125 C 16.734375 25.03125 16.714844 25.027344 16.699219 25.019531 C 16.679688 25.011719 16.664062 25.003906 16.648438 24.988281 C 16.636719 24.972656 16.625 24.957031 16.617188 24.941406 C 16.609375 24.921875 16.605469 24.902344 16.605469 24.882812 L 16.605469 20.457031 C 16.605469 20.4375 16.609375 20.417969 16.617188 20.398438 C 16.625 20.382812 16.636719 20.363281 16.648438 20.351562 C 16.664062 20.335938 16.679688 20.324219 16.699219 20.320312 C 16.714844 20.3125 16.734375 20.308594 16.753906 20.308594 Z M 16.753906 20.308594 " fill-opacity="1" fill-rule="nonzero"/><path fill="#ffffff" d="M 17.515625 25.210938 C 17.519531 25.222656 17.519531 25.234375 17.515625 25.246094 C 17.515625 25.257812 17.511719 25.269531 17.507812 25.28125 C 17.503906 25.292969 17.5 25.300781 17.492188 25.3125 C 17.484375 25.320312 17.476562 25.332031 17.46875 25.339844 C 17.460938 25.347656 17.449219 25.355469 17.441406 25.359375 C 17.429688 25.363281 17.417969 25.371094 17.40625 25.371094 C 17.394531 25.375 17.382812 25.378906 17.371094 25.378906 C 17.359375 25.378906 17.347656 25.378906 17.335938 25.375 C 17.316406 25.375 17.296875 25.371094 17.277344 25.363281 C 17.257812 25.351562 17.242188 25.339844 17.226562 25.324219 C 17.210938 25.308594 17.203125 25.292969 17.195312 25.273438 C 17.1875 25.253906 17.1875 25.230469 17.1875 25.210938 L 17.1875 20.113281 C 17.1875 20.101562 17.1875 20.09375 17.1875 20.082031 C 17.1875 20.074219 17.191406 20.0625 17.195312 20.054688 C 17.199219 20.042969 17.203125 20.035156 17.207031 20.027344 C 17.210938 20.019531 17.21875 20.011719 17.226562 20.003906 C 17.234375 19.996094 17.242188 19.988281 17.25 19.984375 C 17.257812 19.980469 17.269531 19.972656 17.277344 19.972656 C 17.285156 19.96875 17.296875 19.964844 17.308594 19.964844 C 17.316406 19.964844 17.328125 19.964844 17.335938 19.964844 C 17.347656 19.964844 17.355469 19.964844 17.367188 19.964844 C 17.378906 19.964844 17.386719 19.96875 17.398438 19.972656 C 17.40625 19.972656 17.414062 19.980469 17.425781 19.984375 C 17.433594 19.988281 17.441406 19.996094 17.449219 20.003906 C 17.457031 20.011719 17.460938 20.019531 17.46875 20.027344 C 17.472656 20.035156 17.476562 20.042969 17.480469 20.054688 C 17.484375 20.0625 17.484375 20.074219 17.488281 20.082031 C 17.488281 20.09375 17.488281 20.101562 17.488281 20.113281 Z M 17.515625 25.210938 " fill-opacity="1" fill-rule="nonzero"/><path fill="#ffffff" d="M 17.90625 21.617188 L 18.007812 21.617188 C 18.023438 21.617188 18.035156 21.621094 18.050781 21.625 C 18.0625 21.632812 18.074219 21.640625 18.082031 21.648438 C 18.09375 21.660156 18.101562 21.671875 18.105469 21.683594 C 18.109375 21.695312 18.113281 21.710938 18.113281 21.722656 L 18.113281 23.601562 C 18.113281 23.617188 18.109375 23.632812 18.105469 23.648438 C 18.097656 23.660156 18.089844 23.675781 18.078125 23.683594 C 18.066406 23.695312 18.054688 23.707031 18.039062 23.710938 C 18.023438 23.71875 18.011719 23.71875 17.992188 23.71875 L 17.890625 23.71875 C 17.875 23.71875 17.863281 23.71875 17.847656 23.710938 C 17.835938 23.707031 17.824219 23.699219 17.816406 23.691406 C 17.804688 23.679688 17.796875 23.667969 17.792969 23.65625 C 17.789062 23.644531 17.785156 23.628906 17.785156 23.617188 L 17.785156 21.738281 C 17.785156 21.722656 17.789062 21.707031 17.792969 21.691406 C 17.800781 21.675781 17.808594 21.664062 17.820312 21.652344 C 17.832031 21.640625 17.84375 21.632812 17.859375 21.628906 C 17.875 21.621094 17.886719 21.617188 17.90625 21.617188 Z M 17.90625 21.617188 " fill-opacity="1" fill-rule="nonzero"/><path fill="#ffffff" d="M 18.695312 24.183594 C 18.695312 24.199219 18.691406 24.21875 18.683594 24.234375 C 18.679688 24.25 18.667969 24.265625 18.65625 24.277344 C 18.644531 24.289062 18.628906 24.300781 18.613281 24.304688 C 18.597656 24.3125 18.578125 24.316406 18.5625 24.316406 C 18.539062 24.328125 18.515625 24.332031 18.492188 24.332031 C 18.464844 24.328125 18.445312 24.320312 18.425781 24.308594 C 18.402344 24.292969 18.386719 24.273438 18.378906 24.253906 C 18.367188 24.230469 18.363281 24.207031 18.367188 24.183594 L 18.367188 21.203125 C 18.367188 21.183594 18.371094 21.167969 18.378906 21.148438 C 18.382812 21.132812 18.394531 21.121094 18.40625 21.105469 C 18.417969 21.09375 18.433594 21.085938 18.449219 21.078125 C 18.464844 21.070312 18.484375 21.066406 18.5 21.066406 C 18.523438 21.054688 18.546875 21.050781 18.570312 21.054688 C 18.59375 21.054688 18.617188 21.0625 18.636719 21.078125 C 18.660156 21.089844 18.671875 21.109375 18.683594 21.132812 C 18.695312 21.152344 18.699219 21.175781 18.695312 21.203125 Z M 18.695312 24.183594 " fill-opacity="1" fill-rule="nonzero"/><path fill="#ffffff" d="M 19.113281 20.351562 L 19.144531 20.351562 C 19.164062 20.351562 19.183594 20.355469 19.199219 20.363281 C 19.21875 20.371094 19.234375 20.382812 19.25 20.394531 C 19.261719 20.410156 19.273438 20.425781 19.28125 20.445312 C 19.289062 20.460938 19.292969 20.480469 19.292969 20.5 L 19.292969 24.839844 C 19.292969 24.859375 19.289062 24.875 19.28125 24.894531 C 19.273438 24.914062 19.261719 24.929688 19.25 24.945312 C 19.234375 24.957031 19.21875 24.96875 19.199219 24.976562 C 19.183594 24.984375 19.164062 24.988281 19.144531 24.988281 L 19.113281 24.988281 C 19.09375 24.988281 19.074219 24.984375 19.054688 24.976562 C 19.039062 24.96875 19.023438 24.957031 19.007812 24.945312 C 18.992188 24.929688 18.984375 24.914062 18.976562 24.894531 C 18.96875 24.875 18.964844 24.859375 18.964844 24.839844 L 18.964844 20.5 C 18.964844 20.480469 18.96875 20.460938 18.976562 20.445312 C 18.984375 20.425781 18.992188 20.410156 19.007812 20.394531 C 19.023438 20.382812 19.039062 20.371094 19.054688 20.363281 C 19.074219 20.355469 19.09375 20.351562 19.113281 20.351562 Z M 19.113281 20.351562 " fill-opacity="1" fill-rule="nonzero"/><path fill="#ffffff" d="M 19.695312 19.515625 L 19.726562 19.515625 C 19.746094 19.515625 19.765625 19.519531 19.78125 19.527344 C 19.800781 19.535156 19.816406 19.546875 19.832031 19.5625 C 19.84375 19.574219 19.855469 19.589844 19.863281 19.609375 C 19.871094 19.628906 19.875 19.648438 19.875 19.667969 L 19.875 25.671875 C 19.875 25.691406 19.871094 25.710938 19.863281 25.730469 C 19.855469 25.746094 19.84375 25.765625 19.832031 25.777344 C 19.816406 25.792969 19.800781 25.804688 19.78125 25.808594 C 19.765625 25.816406 19.746094 25.820312 19.726562 25.820312 L 19.695312 25.820312 C 19.675781 25.820312 19.65625 25.816406 19.636719 25.808594 C 19.621094 25.804688 19.605469 25.792969 19.589844 25.777344 C 19.574219 25.765625 19.566406 25.746094 19.558594 25.730469 C 19.550781 25.710938 19.546875 25.691406 19.546875 25.671875 L 19.546875 19.667969 C 19.546875 19.648438 19.550781 19.628906 19.558594 19.609375 C 19.566406 19.589844 19.574219 19.574219 19.589844 19.5625 C 19.605469 19.546875 19.621094 19.535156 19.636719 19.527344 C 19.65625 19.519531 19.675781 19.515625 19.695312 19.515625 Z M 19.695312 19.515625 " fill-opacity="1" fill-rule="nonzero"/><path fill="#ffffff" d="M 20.457031 25.089844 C 20.457031 25.109375 20.457031 25.128906 20.449219 25.148438 C 20.445312 25.167969 20.4375 25.1875 20.421875 25.203125 C 20.410156 25.21875 20.394531 25.230469 20.378906 25.238281 C 20.359375 25.246094 20.34375 25.253906 20.320312 25.253906 C 20.300781 25.253906 20.28125 25.25 20.261719 25.242188 C 20.242188 25.234375 20.226562 25.222656 20.210938 25.207031 C 20.195312 25.191406 20.1875 25.171875 20.179688 25.152344 C 20.171875 25.132812 20.171875 25.113281 20.171875 25.089844 L 20.171875 20.234375 C 20.171875 20.214844 20.175781 20.195312 20.183594 20.175781 C 20.191406 20.15625 20.203125 20.140625 20.214844 20.128906 C 20.230469 20.113281 20.246094 20.101562 20.265625 20.09375 C 20.285156 20.085938 20.300781 20.082031 20.320312 20.082031 C 20.339844 20.085938 20.359375 20.089844 20.375 20.097656 C 20.390625 20.105469 20.40625 20.117188 20.417969 20.132812 C 20.429688 20.144531 20.441406 20.160156 20.445312 20.179688 C 20.453125 20.195312 20.457031 20.214844 20.457031 20.234375 Z M 20.457031 25.089844 " fill-opacity="1" fill-rule="nonzero"/><path fill="#ffffff" d="M 20.875 20.5625 L 20.90625 20.5625 C 20.925781 20.5625 20.941406 20.5625 20.960938 20.570312 C 20.980469 20.578125 20.996094 20.589844 21.011719 20.605469 C 21.023438 20.617188 21.035156 20.632812 21.042969 20.652344 C 21.050781 20.671875 21.054688 20.691406 21.054688 20.710938 L 21.054688 24.613281 C 21.054688 24.632812 21.050781 24.652344 21.042969 24.671875 C 21.035156 24.691406 21.023438 24.707031 21.011719 24.71875 C 20.996094 24.734375 20.980469 24.746094 20.960938 24.753906 C 20.941406 24.761719 20.925781 24.761719 20.90625 24.761719 L 20.875 24.761719 C 20.855469 24.761719 20.835938 24.761719 20.816406 24.753906 C 20.800781 24.746094 20.78125 24.734375 20.769531 24.71875 C 20.753906 24.707031 20.746094 24.691406 20.738281 24.671875 C 20.730469 24.652344 20.726562 24.632812 20.726562 24.613281 L 20.726562 20.710938 C 20.726562 20.691406 20.730469 20.671875 20.738281 20.652344 C 20.746094 20.632812 20.753906 20.617188 20.769531 20.605469 C 20.78125 20.589844 20.800781 20.578125 20.816406 20.570312 C 20.835938 20.5625 20.855469 20.5625 20.875 20.5625 Z M 20.875 20.5625 " fill-opacity="1" fill-rule="nonzero"/><path fill="#ffffff" d="M 21.636719 24.003906 C 21.648438 24.023438 21.652344 24.042969 21.652344 24.066406 C 21.652344 24.089844 21.644531 24.109375 21.632812 24.128906 C 21.621094 24.148438 21.601562 24.164062 21.582031 24.171875 C 21.5625 24.183594 21.539062 24.183594 21.515625 24.183594 L 21.441406 24.183594 C 21.425781 24.179688 21.410156 24.175781 21.394531 24.167969 C 21.378906 24.160156 21.367188 24.152344 21.355469 24.136719 C 21.34375 24.125 21.335938 24.113281 21.332031 24.097656 C 21.324219 24.082031 21.320312 24.066406 21.324219 24.046875 L 21.324219 21.320312 C 21.324219 21.304688 21.328125 21.289062 21.335938 21.277344 C 21.339844 21.261719 21.351562 21.25 21.359375 21.238281 C 21.371094 21.230469 21.382812 21.21875 21.398438 21.214844 C 21.410156 21.207031 21.425781 21.203125 21.441406 21.203125 L 21.515625 21.203125 C 21.53125 21.203125 21.546875 21.203125 21.5625 21.210938 C 21.578125 21.214844 21.589844 21.226562 21.601562 21.238281 C 21.613281 21.246094 21.621094 21.261719 21.625 21.273438 C 21.632812 21.289062 21.636719 21.304688 21.636719 21.320312 Z M 21.636719 24.003906 " fill-opacity="1" fill-rule="nonzero"/><path fill="#ffffff" d="M 22.234375 24.792969 C 22.234375 24.8125 22.230469 24.832031 22.222656 24.851562 C 22.214844 24.867188 22.203125 24.886719 22.1875 24.898438 C 22.175781 24.914062 22.160156 24.921875 22.140625 24.929688 C 22.121094 24.9375 22.101562 24.941406 22.082031 24.941406 C 22.0625 24.941406 22.042969 24.9375 22.027344 24.929688 C 22.007812 24.921875 21.992188 24.914062 21.976562 24.898438 C 21.964844 24.886719 21.953125 24.867188 21.945312 24.851562 C 21.9375 24.832031 21.933594 24.8125 21.933594 24.792969 L 21.933594 20.546875 C 21.933594 20.523438 21.9375 20.503906 21.945312 20.484375 C 21.953125 20.46875 21.964844 20.449219 21.976562 20.433594 C 21.992188 20.417969 22.007812 20.40625 22.023438 20.398438 C 22.042969 20.390625 22.0625 20.382812 22.082031 20.382812 C 22.105469 20.382812 22.125 20.390625 22.140625 20.398438 C 22.160156 20.40625 22.175781 20.417969 22.191406 20.433594 C 22.203125 20.449219 22.214844 20.46875 22.222656 20.484375 C 22.230469 20.503906 22.234375 20.523438 22.234375 20.546875 Z M 22.234375 24.792969 " fill-opacity="1" fill-rule="nonzero"/><path fill="#ffffff" d="M 22.652344 19.414062 L 22.679688 19.414062 C 22.699219 19.414062 22.71875 19.417969 22.738281 19.425781 C 22.757812 19.433594 22.773438 19.441406 22.785156 19.457031 C 22.800781 19.46875 22.8125 19.488281 22.820312 19.503906 C 22.824219 19.523438 22.828125 19.542969 22.828125 19.5625 L 22.828125 25.761719 C 22.828125 25.78125 22.824219 25.800781 22.820312 25.820312 C 22.8125 25.835938 22.800781 25.855469 22.785156 25.867188 C 22.773438 25.882812 22.757812 25.890625 22.738281 25.898438 C 22.71875 25.90625 22.699219 25.910156 22.679688 25.910156 L 22.652344 25.910156 C 22.632812 25.910156 22.613281 25.90625 22.59375 25.898438 C 22.574219 25.890625 22.558594 25.882812 22.546875 25.867188 C 22.53125 25.855469 22.519531 25.835938 22.511719 25.820312 C 22.503906 25.800781 22.5 25.78125 22.5 25.761719 L 22.5 19.5625 C 22.5 19.542969 22.503906 19.523438 22.511719 19.503906 C 22.519531 19.488281 22.53125 19.46875 22.546875 19.457031 C 22.558594 19.441406 22.574219 19.433594 22.59375 19.425781 C 22.613281 19.417969 22.632812 19.414062 22.652344 19.414062 Z M 22.652344 19.414062 " fill-opacity="1" fill-rule="nonzero"/><path fill="#ffffff" d="M 23.234375 19.949219 L 23.261719 19.949219 C 23.28125 19.949219 23.300781 19.953125 23.320312 19.960938 C 23.339844 19.96875 23.355469 19.980469 23.367188 19.992188 C 23.382812 20.007812 23.394531 20.023438 23.402344 20.042969 C 23.40625 20.058594 23.410156 20.078125 23.410156 20.097656 L 23.410156 25.242188 C 23.410156 25.261719 23.40625 25.277344 23.402344 25.296875 C 23.394531 25.316406 23.382812 25.332031 23.367188 25.347656 C 23.355469 25.359375 23.339844 25.371094 23.320312 25.378906 C 23.300781 25.386719 23.28125 25.390625 23.261719 25.390625 L 23.234375 25.390625 C 23.214844 25.390625 23.195312 25.386719 23.175781 25.378906 C 23.15625 25.371094 23.140625 25.359375 23.128906 25.347656 C 23.113281 25.332031 23.101562 25.316406 23.09375 25.296875 C 23.085938 25.277344 23.082031 25.261719 23.082031 25.242188 L 23.082031 20.097656 C 23.082031 20.078125 23.085938 20.058594 23.09375 20.042969 C 23.101562 20.023438 23.113281 20.007812 23.128906 19.992188 C 23.140625 19.980469 23.15625 19.96875 23.175781 19.960938 C 23.195312 19.953125 23.214844 19.949219 23.234375 19.949219 Z M 23.234375 19.949219 " fill-opacity="1" fill-rule="nonzero"/><path fill="#ffffff" d="M 23.992188 24.183594 C 23.992188 24.199219 23.992188 24.21875 23.984375 24.234375 C 23.976562 24.25 23.96875 24.265625 23.953125 24.277344 C 23.941406 24.289062 23.925781 24.300781 23.910156 24.304688 C 23.894531 24.3125 23.878906 24.316406 23.859375 24.316406 C 23.847656 24.320312 23.839844 24.324219 23.828125 24.324219 C 23.816406 24.324219 23.804688 24.324219 23.792969 24.324219 C 23.785156 24.320312 23.773438 24.316406 23.761719 24.3125 C 23.753906 24.308594 23.742188 24.304688 23.734375 24.296875 C 23.726562 24.289062 23.71875 24.28125 23.710938 24.273438 C 23.703125 24.265625 23.699219 24.257812 23.691406 24.246094 C 23.6875 24.238281 23.683594 24.226562 23.683594 24.214844 C 23.679688 24.203125 23.679688 24.195312 23.679688 24.183594 L 23.679688 21.203125 C 23.679688 21.183594 23.679688 21.164062 23.6875 21.144531 C 23.691406 21.128906 23.703125 21.109375 23.714844 21.097656 C 23.726562 21.082031 23.742188 21.070312 23.761719 21.0625 C 23.777344 21.054688 23.796875 21.050781 23.816406 21.050781 C 23.835938 21.050781 23.851562 21.054688 23.871094 21.0625 C 23.886719 21.070312 23.902344 21.082031 23.914062 21.097656 C 23.929688 21.109375 23.9375 21.128906 23.945312 21.144531 C 23.949219 21.164062 23.953125 21.183594 23.949219 21.203125 Z M 23.992188 24.183594 " fill-opacity="1" fill-rule="nonzero"/><path fill="#ffffff" d="M 24.589844 25.433594 C 24.589844 25.453125 24.585938 25.476562 24.582031 25.492188 C 24.574219 25.511719 24.5625 25.53125 24.546875 25.546875 C 24.535156 25.558594 24.519531 25.574219 24.5 25.582031 C 24.480469 25.589844 24.460938 25.597656 24.441406 25.597656 C 24.421875 25.597656 24.402344 25.59375 24.382812 25.585938 C 24.363281 25.578125 24.34375 25.566406 24.332031 25.550781 C 24.316406 25.535156 24.304688 25.515625 24.300781 25.496094 C 24.292969 25.476562 24.289062 25.457031 24.292969 25.433594 L 24.292969 19.890625 C 24.292969 19.878906 24.292969 19.871094 24.292969 19.859375 C 24.292969 19.847656 24.296875 19.839844 24.300781 19.832031 C 24.300781 19.820312 24.308594 19.8125 24.3125 19.804688 C 24.316406 19.792969 24.324219 19.785156 24.332031 19.78125 C 24.339844 19.773438 24.347656 19.765625 24.355469 19.761719 C 24.363281 19.753906 24.371094 19.75 24.382812 19.746094 C 24.390625 19.742188 24.402344 19.742188 24.410156 19.742188 C 24.421875 19.738281 24.429688 19.738281 24.441406 19.742188 C 24.460938 19.742188 24.480469 19.746094 24.5 19.753906 C 24.515625 19.757812 24.535156 19.769531 24.546875 19.785156 C 24.5625 19.796875 24.570312 19.816406 24.578125 19.832031 C 24.585938 19.851562 24.589844 19.871094 24.589844 19.890625 Z M 24.589844 25.433594 " fill-opacity="1" fill-rule="nonzero"/><g clip-path="url(#18ccacc5dc)"><path fill="#ffffff" d="M 28.488281 26.015625 C 28.484375 26.046875 28.476562 26.078125 28.46875 26.109375 C 28.460938 26.140625 28.453125 26.171875 28.441406 26.203125 C 28.433594 26.234375 28.421875 26.261719 28.40625 26.292969 C 28.394531 26.320312 28.378906 26.351562 28.363281 26.378906 C 28.347656 26.40625 28.328125 26.433594 28.3125 26.457031 C 28.292969 26.484375 28.273438 26.507812 28.25 26.535156 C 28.230469 26.558594 28.207031 26.582031 28.183594 26.601562 C 28.160156 26.625 28.136719 26.644531 28.109375 26.664062 C 28.085938 26.683594 28.058594 26.703125 28.03125 26.71875 C 28.003906 26.734375 27.972656 26.75 27.945312 26.765625 C 27.917969 26.777344 27.886719 26.789062 27.855469 26.800781 C 27.828125 26.8125 27.796875 26.824219 27.765625 26.832031 C 27.734375 26.839844 27.703125 26.84375 27.671875 26.847656 C 27.636719 26.855469 27.605469 26.859375 27.574219 26.859375 C 27.542969 26.859375 27.511719 26.859375 27.476562 26.859375 C 27.445312 26.859375 27.414062 26.855469 27.382812 26.851562 L 25.488281 26.550781 C 25.453125 26.546875 25.421875 26.539062 25.390625 26.527344 C 25.363281 26.519531 25.332031 26.507812 25.300781 26.496094 C 25.269531 26.484375 25.242188 26.472656 25.214844 26.457031 C 25.183594 26.441406 25.15625 26.425781 25.128906 26.40625 C 25.101562 26.390625 25.078125 26.371094 25.050781 26.351562 C 25.027344 26.332031 25 26.308594 24.976562 26.285156 C 24.957031 26.265625 24.933594 26.242188 24.914062 26.214844 C 24.890625 26.191406 24.871094 26.167969 24.851562 26.140625 C 24.835938 26.113281 24.816406 26.085938 24.800781 26.058594 C 24.785156 26.03125 24.769531 26 24.757812 25.972656 C 24.746094 25.941406 24.734375 25.914062 24.722656 25.882812 C 24.710938 25.851562 24.703125 25.820312 24.695312 25.789062 C 24.6875 25.757812 24.683594 25.726562 24.679688 25.695312 C 24.671875 25.660156 24.671875 25.628906 24.667969 25.597656 C 24.667969 25.566406 24.667969 25.53125 24.671875 25.5 C 24.671875 25.46875 24.675781 25.4375 24.679688 25.40625 L 24.949219 23.644531 C 24.949219 23.644531 24.84375 23.644531 24.84375 23.554688 L 24.84375 21.78125 C 24.847656 21.769531 24.851562 21.757812 24.855469 21.746094 C 24.863281 21.734375 24.871094 21.722656 24.878906 21.710938 C 24.886719 21.703125 24.898438 21.695312 24.910156 21.691406 C 24.921875 21.683594 24.9375 21.679688 24.949219 21.679688 L 25.070312 21.679688 C 25.082031 21.679688 25.097656 21.679688 25.109375 21.6875 C 25.121094 21.691406 25.132812 21.699219 25.140625 21.710938 C 25.152344 21.71875 25.160156 21.730469 25.164062 21.742188 C 25.171875 21.753906 25.171875 21.769531 25.171875 21.78125 L 25.171875 22.066406 L 25.472656 20.023438 C 25.476562 19.972656 25.488281 19.921875 25.503906 19.871094 C 25.519531 19.820312 25.539062 19.773438 25.5625 19.726562 C 25.585938 19.679688 25.613281 19.636719 25.640625 19.59375 C 25.671875 19.550781 25.707031 19.511719 25.742188 19.476562 C 25.78125 19.4375 25.820312 19.40625 25.863281 19.375 C 25.902344 19.34375 25.949219 19.316406 25.996094 19.292969 C 26.042969 19.273438 26.089844 19.253906 26.140625 19.238281 C 26.191406 19.222656 26.242188 19.210938 26.292969 19.203125 C 26.1875 18.578125 26.003906 17.976562 25.742188 17.402344 C 25.65625 17.390625 25.574219 17.371094 25.496094 17.34375 C 25.417969 17.3125 25.34375 17.273438 25.273438 17.226562 C 25.203125 17.183594 25.140625 17.128906 25.082031 17.066406 C 25.023438 17.003906 24.976562 16.9375 24.933594 16.863281 C 24.859375 16.722656 24.777344 16.585938 24.695312 16.453125 C 24.609375 16.316406 24.519531 16.1875 24.425781 16.058594 C 24.332031 15.929688 24.234375 15.804688 24.132812 15.679688 C 24.03125 15.558594 23.925781 15.441406 23.816406 15.324219 C 23.703125 15.210938 23.589844 15.097656 23.472656 14.992188 C 23.355469 14.882812 23.234375 14.78125 23.113281 14.679688 C 22.988281 14.582031 22.859375 14.484375 22.730469 14.394531 C 22.597656 14.304688 22.464844 14.21875 22.328125 14.136719 C 22.191406 14.054688 22.054688 13.976562 21.910156 13.902344 C 21.769531 13.832031 21.625 13.761719 21.480469 13.699219 C 21.332031 13.636719 21.1875 13.578125 21.035156 13.523438 C 20.886719 13.46875 20.734375 13.421875 20.582031 13.378906 C 20.429688 13.335938 20.273438 13.296875 20.117188 13.265625 C 19.960938 13.230469 19.804688 13.203125 19.648438 13.179688 C 19.488281 13.160156 19.332031 13.140625 19.171875 13.128906 C 19.011719 13.117188 18.855469 13.109375 18.695312 13.109375 C 18.539062 13.109375 18.378906 13.117188 18.222656 13.132812 C 18.0625 13.144531 17.90625 13.160156 17.75 13.183594 C 17.59375 13.207031 17.4375 13.238281 17.28125 13.269531 C 17.128906 13.304688 16.972656 13.34375 16.820312 13.386719 C 16.667969 13.429688 16.519531 13.476562 16.371094 13.53125 C 16.222656 13.585938 16.074219 13.644531 15.929688 13.707031 C 15.785156 13.769531 15.640625 13.839844 15.5 13.914062 C 15.359375 13.984375 15.222656 14.0625 15.085938 14.144531 C 14.953125 14.226562 14.820312 14.3125 14.6875 14.402344 C 14.558594 14.496094 14.433594 14.589844 14.308594 14.6875 C 14.1875 14.789062 14.066406 14.890625 13.949219 15 C 13.832031 15.105469 13.722656 15.21875 13.613281 15.332031 C 13.503906 15.445312 13.398438 15.566406 13.296875 15.6875 C 13.195312 15.808594 13.097656 15.933594 13.003906 16.0625 C 12.914062 16.1875 12.824219 16.320312 12.738281 16.453125 C 12.65625 16.589844 12.578125 16.726562 12.5 16.863281 C 12.460938 16.9375 12.410156 17.007812 12.351562 17.070312 C 12.292969 17.136719 12.226562 17.191406 12.15625 17.238281 C 12.085938 17.285156 12.007812 17.324219 11.929688 17.355469 C 11.847656 17.386719 11.765625 17.40625 11.679688 17.414062 C 11.433594 17.988281 11.25 18.578125 11.128906 19.191406 C 11.160156 19.1875 11.191406 19.183594 11.222656 19.183594 C 11.253906 19.183594 11.285156 19.183594 11.316406 19.1875 C 11.347656 19.1875 11.378906 19.191406 11.40625 19.199219 C 11.4375 19.203125 11.46875 19.210938 11.5 19.21875 C 11.53125 19.226562 11.558594 19.238281 11.589844 19.25 C 11.617188 19.261719 11.644531 19.273438 11.671875 19.285156 C 11.699219 19.300781 11.726562 19.316406 11.753906 19.332031 C 11.78125 19.351562 11.804688 19.367188 11.832031 19.386719 C 11.855469 19.40625 11.878906 19.425781 11.902344 19.449219 C 11.925781 19.472656 11.945312 19.492188 11.964844 19.515625 C 11.984375 19.539062 12.003906 19.566406 12.023438 19.589844 C 12.039062 19.617188 12.058594 19.644531 12.074219 19.671875 C 12.085938 19.699219 12.101562 19.726562 12.113281 19.753906 C 12.125 19.78125 12.136719 19.8125 12.148438 19.839844 C 12.15625 19.871094 12.164062 19.902344 12.171875 19.933594 C 12.179688 19.960938 12.183594 19.992188 12.1875 20.023438 L 12.484375 22.066406 L 12.484375 21.871094 C 12.484375 21.859375 12.488281 21.84375 12.496094 21.832031 C 12.5 21.820312 12.507812 21.808594 12.515625 21.796875 C 12.527344 21.789062 12.539062 21.78125 12.550781 21.777344 C 12.5625 21.769531 12.578125 21.769531 12.589844 21.769531 L 12.710938 21.769531 C 12.726562 21.757812 12.746094 21.757812 12.765625 21.757812 C 12.78125 21.757812 12.800781 21.765625 12.816406 21.777344 C 12.832031 21.789062 12.84375 21.800781 12.851562 21.816406 C 12.859375 21.835938 12.863281 21.851562 12.859375 21.871094 L 12.859375 23.46875 C 12.859375 23.480469 12.855469 23.492188 12.851562 23.507812 C 12.847656 23.519531 12.839844 23.53125 12.828125 23.539062 C 12.820312 23.550781 12.808594 23.558594 12.796875 23.5625 C 12.78125 23.570312 12.769531 23.570312 12.753906 23.570312 L 13.023438 25.40625 C 13.027344 25.4375 13.03125 25.46875 13.035156 25.5 C 13.035156 25.53125 13.035156 25.566406 13.035156 25.597656 C 13.035156 25.628906 13.03125 25.660156 13.027344 25.695312 C 13.023438 25.726562 13.015625 25.757812 13.007812 25.789062 C 13 25.820312 12.992188 25.851562 12.980469 25.882812 C 12.972656 25.914062 12.960938 25.941406 12.945312 25.972656 C 12.933594 26 12.917969 26.03125 12.902344 26.058594 C 12.886719 26.085938 12.871094 26.113281 12.851562 26.140625 C 12.832031 26.167969 12.8125 26.191406 12.792969 26.214844 C 12.769531 26.242188 12.75 26.265625 12.726562 26.285156 C 12.703125 26.308594 12.679688 26.332031 12.652344 26.351562 C 12.628906 26.371094 12.601562 26.390625 12.574219 26.40625 C 12.546875 26.425781 12.519531 26.441406 12.492188 26.457031 C 12.460938 26.472656 12.433594 26.484375 12.402344 26.496094 C 12.375 26.507812 12.34375 26.519531 12.3125 26.527344 C 12.28125 26.539062 12.25 26.546875 12.21875 26.550781 L 10.320312 26.851562 C 10.289062 26.855469 10.257812 26.859375 10.226562 26.859375 C 10.195312 26.859375 10.160156 26.859375 10.128906 26.859375 C 10.097656 26.859375 10.066406 26.855469 10.035156 26.847656 C 10.003906 26.84375 9.972656 26.839844 9.941406 26.832031 C 9.910156 26.824219 9.878906 26.8125 9.847656 26.800781 C 9.816406 26.789062 9.789062 26.777344 9.757812 26.765625 C 9.730469 26.75 9.703125 26.734375 9.675781 26.71875 C 9.648438 26.703125 9.621094 26.683594 9.59375 26.664062 C 9.570312 26.644531 9.542969 26.625 9.519531 26.601562 C 9.496094 26.582031 9.472656 26.558594 9.453125 26.535156 C 9.433594 26.507812 9.410156 26.484375 9.394531 26.457031 C 9.375 26.433594 9.355469 26.40625 9.339844 26.378906 C 9.324219 26.351562 9.308594 26.320312 9.296875 26.292969 C 9.28125 26.261719 9.269531 26.234375 9.261719 26.203125 C 9.25 26.171875 9.242188 26.140625 9.234375 26.109375 C 9.226562 26.078125 9.222656 26.046875 9.21875 26.015625 L 8.382812 20.636719 C 8.375 20.601562 8.371094 20.570312 8.371094 20.539062 C 8.367188 20.507812 8.367188 20.472656 8.367188 20.441406 C 8.371094 20.410156 8.371094 20.378906 8.375 20.34375 C 8.378906 20.3125 8.386719 20.28125 8.394531 20.25 C 8.398438 20.21875 8.410156 20.1875 8.417969 20.15625 C 8.429688 20.125 8.441406 20.09375 8.453125 20.066406 C 8.46875 20.035156 8.480469 20.007812 8.496094 19.976562 C 8.511719 19.949219 8.53125 19.921875 8.550781 19.894531 C 8.566406 19.871094 8.585938 19.84375 8.609375 19.820312 C 8.628906 19.796875 8.652344 19.773438 8.675781 19.75 C 8.699219 19.726562 8.722656 19.707031 8.75 19.683594 C 8.773438 19.664062 8.800781 19.648438 8.828125 19.628906 C 8.855469 19.613281 8.882812 19.59375 8.914062 19.582031 C 8.941406 19.566406 8.972656 19.550781 9 19.539062 C 9.03125 19.527344 9.0625 19.519531 9.09375 19.507812 C 9.125 19.5 9.15625 19.492188 9.1875 19.488281 L 9.964844 19.367188 C 10.074219 18.539062 10.292969 17.738281 10.621094 16.96875 C 10.589844 16.921875 10.558594 16.875 10.535156 16.824219 C 10.507812 16.773438 10.488281 16.722656 10.46875 16.667969 C 10.449219 16.613281 10.4375 16.5625 10.425781 16.503906 C 10.414062 16.449219 10.40625 16.394531 10.402344 16.339844 C 10.402344 16.28125 10.402344 16.226562 10.40625 16.167969 C 10.410156 16.113281 10.417969 16.058594 10.429688 16.003906 C 10.441406 15.949219 10.457031 15.894531 10.476562 15.839844 C 10.496094 15.789062 10.519531 15.738281 10.546875 15.6875 C 10.746094 15.324219 10.96875 14.976562 11.214844 14.640625 C 11.457031 14.304688 11.722656 13.988281 12.007812 13.6875 C 12.296875 13.386719 12.597656 13.105469 12.921875 12.84375 C 13.242188 12.582031 13.582031 12.34375 13.933594 12.125 C 14.113281 12.015625 14.292969 11.910156 14.480469 11.8125 C 14.664062 11.714844 14.851562 11.625 15.042969 11.539062 C 15.234375 11.457031 15.429688 11.378906 15.625 11.304688 C 15.824219 11.234375 16.023438 11.171875 16.222656 11.113281 C 16.425781 11.054688 16.628906 11.007812 16.832031 10.960938 C 17.039062 10.917969 17.242188 10.882812 17.449219 10.855469 C 17.660156 10.824219 17.867188 10.804688 18.074219 10.789062 C 18.285156 10.773438 18.492188 10.765625 18.703125 10.765625 C 18.914062 10.765625 19.121094 10.773438 19.332031 10.789062 C 19.539062 10.804688 19.746094 10.824219 19.953125 10.855469 C 20.160156 10.882812 20.367188 10.917969 20.574219 10.960938 C 20.777344 11.007812 20.980469 11.054688 21.183594 11.113281 C 21.382812 11.171875 21.582031 11.234375 21.78125 11.304688 C 21.976562 11.378906 22.171875 11.457031 22.363281 11.539062 C 22.554688 11.625 22.742188 11.714844 22.925781 11.8125 C 23.113281 11.910156 23.292969 12.015625 23.472656 12.125 C 23.824219 12.34375 24.15625 12.585938 24.476562 12.847656 C 24.796875 13.109375 25.101562 13.390625 25.386719 13.691406 C 25.667969 13.992188 25.933594 14.308594 26.179688 14.644531 C 26.421875 14.976562 26.644531 15.324219 26.84375 15.6875 C 26.875 15.734375 26.898438 15.785156 26.921875 15.835938 C 26.945312 15.886719 26.964844 15.941406 26.976562 15.996094 C 26.992188 16.050781 27.003906 16.105469 27.011719 16.160156 C 27.019531 16.214844 27.023438 16.273438 27.023438 16.328125 C 27.023438 16.382812 27.019531 16.441406 27.011719 16.496094 C 27.003906 16.550781 26.992188 16.605469 26.976562 16.660156 C 26.964844 16.714844 26.945312 16.769531 26.921875 16.820312 C 26.898438 16.871094 26.875 16.921875 26.84375 16.96875 C 27.164062 17.726562 27.382812 18.511719 27.5 19.324219 L 28.53125 19.488281 C 28.5625 19.492188 28.59375 19.5 28.625 19.507812 C 28.65625 19.519531 28.6875 19.527344 28.71875 19.539062 C 28.75 19.550781 28.777344 19.566406 28.808594 19.582031 C 28.835938 19.59375 28.863281 19.613281 28.890625 19.628906 C 28.917969 19.648438 28.945312 19.664062 28.96875 19.683594 C 28.996094 19.707031 29.019531 19.726562 29.042969 19.75 C 29.066406 19.773438 29.089844 19.796875 29.109375 19.820312 C 29.132812 19.84375 29.152344 19.871094 29.167969 19.894531 C 29.1875 19.921875 29.207031 19.949219 29.222656 19.976562 C 29.238281 20.007812 29.253906 20.035156 29.265625 20.066406 C 29.277344 20.09375 29.289062 20.125 29.300781 20.15625 C 29.3125 20.1875 29.320312 20.21875 29.328125 20.25 C 29.332031 20.28125 29.339844 20.3125 29.34375 20.34375 C 29.347656 20.378906 29.351562 20.410156 29.351562 20.441406 C 29.351562 20.472656 29.351562 20.507812 29.347656 20.539062 C 29.347656 20.570312 29.34375 20.601562 29.335938 20.636719 Z M 28.488281 26.015625 " fill-opacity="1" fill-rule="nonzero"/></g></svg>