<svg xmlns="http://www.w3.org/2000/svg" xml:space="preserve" style="enable-background:new 0 0 94.8 101.7" viewBox="0 0 94.8 101.7"><path d="M85.2 72.8c-2.6 4.5-6.9 7.9-11.9 9.3.7-2.5 1.1-5 1.1-7.6 0-12.8-8.8-23.4-20.6-26.4 2.4-2.4 5.5-4.1 8.8-5 5.1-1.4 10.6-.7 15.2 2 9.7 5.7 13 18 7.4 27.7M47.4 94.7c-5.2 0-10.2-2.1-13.9-5.7 2.5-.6 4.8-1.6 7-2.8 11-6.4 15.8-19.4 12.4-31.1 8.4 2.4 14.6 10.2 14.6 19.4 0 11.2-9 20.2-20.1 20.2M9.6 72.8c-2.6-4.6-3.3-10-2.1-15 1.8 1.8 3.8 3.4 6 4.7 4.1 2.4 8.7 3.6 13.5 3.6 7.4 0 14.4-3 19.5-8.4 2.1 8.5-1.5 17.8-9.4 22.4-3 1.8-6.5 2.7-10 2.7-7.2.1-13.9-3.8-17.5-10m0-43.9c2.6-4.5 6.9-7.9 11.9-9.3-.7 2.5-1.1 5-1.1 7.6 0 12.7 8.8 23.4 20.6 26.4-6.3 6.1-16.1 7.6-24 3-4.6-2.7-8-7.1-9.4-12.3-1.4-5.2-.7-10.8 2-15.4M47.4 7c5.2 0 10.2 2.1 13.9 5.7-2.5.6-4.8 1.6-7 2.8C48.1 19.1 43.6 25 41.7 32c-1.3 4.8-1.2 9.8.2 14.6-8.4-2.4-14.6-10.2-14.6-19.4C27.3 16 36.3 7 47.4 7m37.8 21.9c2.6 4.6 3.3 10 2.1 15-1.8-1.8-3.8-3.4-6-4.7-6.2-3.6-13.5-4.6-20.5-2.7-4.8 1.3-9.1 3.9-12.5 7.5-.8-3.3-.8-6.8.1-10.1 1.4-5.2 4.7-9.6 9.4-12.3 4.6-2.7 10.1-3.4 15.2-2 5.2 1.3 9.5 4.6 12.2 9.3m6-3.5c-3.6-6.3-9.4-10.8-16.4-12.7-1.6-.4-3.3-.7-5-.9C64.8 4.5 56.4 0 47.4 0c-9.3 0-17.5 4.7-22.3 11.9-8.9.7-17 5.7-21.5 13.5C0 31.7-.9 39 .9 46c.4 1.7 1 3.3 1.8 4.8-3.9 8.1-3.6 17.6.9 25.4C8.2 84.3 16.4 89 25 89.7c5 7.4 13.4 11.9 22.4 11.9 9.3 0 17.5-4.7 22.3-11.9 8.9-.7 17-5.7 21.5-13.5 4.6-8.1 4.7-17.6.9-25.4 3.9-8 3.6-17.6-.9-25.4" style="fill-rule:evenodd;clip-rule:evenodd;fill:#0092ff"/></svg>