<svg xmlns="http://www.w3.org/2000/svg" width="400" height="400"><g fill-rule="evenodd"><path fill="#d4d4d4" d="M142.54 174.296c.118 23.946.438 33.085 1.309 37.304.159.77.306 1.49.326 1.6.021.11.149.38.285.6.136.22.374 1.165.529 2.1.155.935.428 1.7.606 1.7.179 0 .541.9.805 2s.642 2 .84 2c.198 0 .36.347.36.771 0 .425.235 1.01.522 1.3.597.604 1.238 1.978 1.138 2.44-.037.171.204.416.536.543.332.127.604.488.604.801 0 .314.254.667.564.786.31.12.663.609.785 1.088.217.853 1.358 2.488 2.751 3.941.385.401.7.785.7.852 0 .328 4.813 5.024 6.208 6.057.875.648 1.72 1.368 1.877 1.6.157.231.479.421.715.421s.558.198.715.44c.351.542 2.175 1.561 2.585 1.445.165-.047.3.091.3.307 0 .313 2.767 2.019 3.6 2.22.11.027 1.399.62 2.865 1.318 1.465.699 3 1.27 3.411 1.27.41 0 1.116.259 1.568.576.452.316 2.427.779 4.389 1.028 1.962.25 3.88.621 4.262.825.411.22 14.777.371 35.288.371h34.595l.016-26.052c.013-20.417-.092-26.188-.489-26.677-.422-.522-.407-.567.095-.271.479.283.511.238.155-.223-.245-.317-.562-2.467-.705-4.777-.253-4.115-1.295-9.006-2.43-11.409-.314-.665-.666-1.731-.782-2.368-.115-.637-.382-1.265-.592-1.395-.21-.13-.506-.729-.658-1.332-.151-.603-.416-1.096-.588-1.096s-.431-.468-.574-1.04c-.253-1.007-1.679-3.306-2.36-3.805-.184-.134-.317-.404-.297-.6.021-.195-.274-.715-.655-1.155-1.829-2.111-5.39-6.4-5.637-6.789-.152-.241-1.717-1.601-3.477-3.024-1.76-1.423-3.332-2.767-3.494-2.987-.162-.22-.297-.267-.3-.104-.006.29-4.01-1.999-4.406-2.518-.11-.144-.875-.482-1.7-.751s-1.5-.647-1.5-.84c0-.193-.63-.469-1.4-.613-.77-.145-1.4-.4-1.4-.567 0-.166-.855-.534-1.9-.817-1.045-.283-2.094-.663-2.332-.844-.237-.182-2.172-.551-4.3-.819-2.127-.269-3.868-.629-3.868-.799 0-.171-15.657-.317-34.794-.324l-34.795-.012.129 26.304m189.06-25.954c0 .188-1.125.455-2.5.592-1.375.137-3.04.364-3.7.504-.66.141-1.417.264-1.682.275-.266.011-.403.15-.304.309.098.159-.63.41-1.618.558-.988.148-1.796.432-1.796.632s-.27.259-.6.133c-.33-.127-.6-.031-.6.212 0 .244-.437.443-.971.443-.535 0-1.21.233-1.5.517-.291.284-1.159.772-1.929 1.083-.77.311-1.638.799-1.929 1.083-.29.284-.785.517-1.1.517-.314 0-.571.158-.571.351 0 .194-.54.576-1.2.849-.66.273-1.2.643-1.2.822 0 .178-.315.425-.7.548-.385.124-1.408.856-2.273 1.627-.865.772-1.73 1.403-1.923 1.403-.193 0-.24.18-.104.4.136.22.069.4-.149.4-.217 0-1.173.819-2.123 1.82l-3.189 3.36c-.803.848-1.581 1.921-1.728 2.386-.148.465-.409.759-.581.652-.293-.18-1.177 1.308-1.076 1.811.025.125-.269.543-.654.928s-.7.942-.7 1.238c0 .296-.135.598-.3.672-.393.174-2.5 4.471-2.5 5.097 0 .266-.15.391-.333.277-.184-.113-.339.011-.345.277-.006.265-.486 1.881-1.066 3.59-.581 1.71-1.056 3.555-1.056 4.1 0 .546-.15.992-.333.992-.184 0-.352.225-.373.5-.022.275-.229 2.57-.461 5.1-.242 2.653-.423 15.817-.426 31.1L286 252h34.405c20.486 0 34.687-.151 35.1-.373.382-.205 2.36-.591 4.395-.858 2.035-.267 3.7-.61 3.7-.763 0-.153.99-.516 2.2-.806 1.21-.29 2.2-.659 2.2-.819 0-.161.63-.41 1.4-.555.77-.144 1.4-.42 1.4-.612 0-.193.538-.469 1.195-.613.658-.144 1.3-.431 1.428-.638.127-.206.804-.649 1.504-.983 2.418-1.156 3.473-1.825 3.473-2.202 0-.208.241-.378.537-.378.686 0 1.906-1.03 5.975-5.044 3.228-3.185 5.575-5.756 5.253-5.756-.09 0 .636-1.086 1.613-2.413.977-1.327 1.889-2.767 2.026-3.2.138-.433.418-.787.623-.787.205 0 .373-.202.373-.45 0-.455 1.653-4.512 2.588-6.35.28-.55.638-1.72.796-2.6.158-.88.431-1.78.606-2 .967-1.214 1.21-8.544 1.21-36.464V148h-34.2c-18.81 0-34.2.154-34.2.342M142.414 307.768c-.004 14.844.144 27.082.33 27.197.185.115.463 2.323.618 4.907.154 2.583.428 4.884.607 5.113.179.228.553 1.405.831 2.615.278 1.21.63 2.38.782 2.6.292.42 1.354 3.917 1.25 4.114-.033.063.216.391.554.729.338.338.614.871.614 1.186 0 .314.166.571.368.571.203 0 .487.539.631 1.198.145.658.485 1.333.756 1.5.27.166.722.872 1.003 1.569.282.697 1.03 1.867 1.664 2.6.634.733 1.346 1.558 1.581 1.833.236.275.354.5.263.5-.092 0 .694.888 1.745 1.972 1.051 1.085 1.808 2.075 1.683 2.2-.125.126.04.228.367.228s.961.405 1.409.9c1.596 1.763 5.035 4.511 6.471 5.17.802.369 1.279.687 1.059.706-.563.05 7.01 3.776 7.974 3.923.435.067.889.252 1.009.411.427.571 5.461 2.079 7.817 2.343 1.32.147 2.528.466 2.685.708.433.666 69.741.881 70.54.218.708-.588.87-53.179.164-53.179-.214 0-.393-1.215-.397-2.7-.009-3.197-.661-8.059-1.163-8.669-.195-.237-.481-1.286-.637-2.331-.156-1.045-.414-1.9-.574-1.9-.16 0-.51-.978-.777-2.174-.268-1.196-.612-2.231-.764-2.3-.152-.069-.817-1.206-1.477-2.526-.66-1.32-1.292-2.49-1.404-2.6-.395-.388-2.538-3.8-2.386-3.8.28 0-1.723-2.299-5.786-6.641-.947-1.012-2.42-2.361-3.273-2.998-.853-.636-1.641-1.259-1.751-1.385-.351-.401-3.934-2.776-4.189-2.776-.224 0-.485-.191-1.925-1.412-.267-.227-1.251-.661-2.186-.964-.935-.304-1.7-.703-1.7-.888 0-.185-.198-.336-.44-.336-.241 0-1.006-.254-1.7-.564-2.696-1.206-9.004-2.881-12.66-3.361-.77-.101-16.74-.254-35.489-.34l-34.089-.156-.008 26.989M332.4 281.15c0 .183-.675.341-1.5.352-2.176.026-5.672.779-6.414 1.38-.54.437-.585.425-.286-.082.283-.48.238-.51-.223-.152-.317.247-1.522.686-2.677.976-1.155.29-2.1.665-2.1.833 0 .169-.63.425-1.4.569-.77.145-1.4.394-1.4.554 0 .161-.72.53-1.6.82-.88.29-1.6.658-1.6.817 0 .238-.776.558-1.809.748-.105.019-.521.35-.925.735s-1.146.97-1.649 1.3c-.503.33-1.163.838-1.466 1.129-.303.29-.551.424-.551.296 0-.332-2.025 1.487-5.86 5.265-1.837 1.81-3.34 3.475-3.34 3.7a.41.41 0 0 1-.409.41c-.224 0-.627.495-.893 1.1-.267.605-.819 1.346-1.226 1.647-.407.3-1.086 1.29-1.507 2.2a36.39 36.39 0 0 1-1.558 2.953c-.435.715-.659 1.303-.499 1.306.161.003.11.138-.112.3-.61.444-2.142 4.094-2.43 5.79-.139.824-.397 1.408-.572 1.3-.175-.108-.448.748-.605 1.904-.157 1.155-.434 2.194-.614 2.309-.835.532-1.207 13.399-1.094 37.791l.119 25.6h35.115c23.899 0 35.206-.133 35.4-.417.157-.229 1.792-.63 3.635-.892 1.842-.261 3.552-.634 3.8-.828.497-.389 2.677-1.032 3.15-.929.165.036.3-.094.3-.291 0-.316 1.12-.754 2.76-1.079.308-.061.668-.279.8-.483.132-.205.69-.512 1.24-.682.55-.17 1.752-.824 2.672-1.454.92-.63 1.855-1.145 2.077-1.145.223 0 .657-.359.964-.797.307-.439.653-.703.769-.588.115.116.639-.242 1.164-.796.525-.553 1.095-1.008 1.267-1.012.511-.011 7.204-6.879 8.288-8.504.549-.824 1.134-1.499 1.299-1.5.165-.002.3-.196.3-.432 0-.235.225-.679.5-.986 1.137-1.268 1.5-1.768 1.501-2.068.001-.174.632-1.364 1.403-2.643.772-1.279 1.249-2.23 1.061-2.114-.188.116.077-.616.589-1.626.511-1.01.833-1.994.714-2.186-.118-.191-.046-.348.161-.348.207 0 .607-.855.89-1.9.582-2.153.563-2.09.899-2.9.869-2.095 1.082-9.221 1.082-36.233v-29.375l-33.8.013c-18.59.007-33.8.162-33.8.345"/><path fill="#2cb3ac" d="M142.696 15.038c-.468.468-.365 53.672.104 53.962.22.136.4 1.259.4 2.497 0 3.125.832 9.303 1.252 9.303.192 0 .354.495.362 1.1.007.605.361 1.82.786 2.7.425.88.779 1.826.786 2.101.008.276.374 1.174.814 1.995.44.82.8 1.72.8 1.998s.144.506.32.506c.175 0 .547.63.826 1.4.278.77.674 1.4.88 1.4.206 0 .374.237.374.528 0 .29.729 1.505 1.62 2.7a289.978 289.978 0 0 1 2.3 3.12c1.128 1.572 5.424 5.783 7.722 7.568 1.187.922 2.376 1.859 2.643 2.082.267.223.987.628 1.6.899.613.272 1.334.676 1.601.898.267.223.728.605 1.023.848.295.244 1.201.663 2.014.931.812.269 1.477.64 1.477.825 0 .186.542.456 1.204.602.662.145 1.737.53 2.388.855.651.325 1.864.698 2.696.829.831.131 1.602.367 1.712.524.19.271 2.55.804 7 1.583 1.1.192 17.345.363 36.1.379l34.1.029V92.624c0-17.287-.14-26.663-.4-26.824-.22-.136-.4-1.394-.4-2.795 0-2.963-.727-8.623-1.183-9.205-.172-.22-.433-1.067-.58-1.883-.147-.816-.529-1.986-.849-2.6-.321-.614-.584-1.305-.586-1.535-.003-.615-3.29-7.159-3.674-7.315-.18-.074-.328-.316-.328-.539 0-1.863-8.802-11.71-12.807-14.328-.504-.33-1.2-.915-1.544-1.3-.345-.385-.829-.7-1.077-.7-.247 0-.865-.36-1.372-.8-.507-.44-1.088-.8-1.29-.8-.202 0-.646-.279-.987-.62-.341-.34-1.138-.723-1.771-.85-.634-.126-1.152-.368-1.152-.537 0-.168-.489-.429-1.086-.579-.597-.15-1.848-.619-2.778-1.043-.931-.424-1.972-.771-2.314-.771-.342 0-.622-.151-.622-.336 0-.184-1.575-.558-3.5-.831-1.925-.273-3.86-.707-4.3-.965-.909-.532-69.781-.954-70.304-.43m190.804.059c-1.705.075-3.1.309-3.1.52 0 .211-.6.383-1.333.383-1.756 0-5.965.82-6.447 1.256-.209.189-.632.344-.94.344-.307 0-1.126.254-1.82.565-.693.311-2.43 1.066-3.86 1.678-1.43.613-3.029 1.438-3.554 1.835-.525.397-1.2.722-1.5.722-.3 0-.546.151-.546.336 0 .184-.457.544-1.015.798-1.104.503-1.877 1.08-2.902 2.166-.363.385-.846.701-1.072.702-.443.001-7.811 7.298-7.811 7.735 0 .144-.315.602-.7 1.016-1.238 1.33-2.1 2.597-2.1 3.086 0 .261-.27.579-.6.706-.33.126-.6.493-.6.814 0 .321-.232.822-.515 1.112-.746.767-2.685 4.609-2.685 5.322 0 .334-.162.607-.36.607-.198 0-.582.945-.852 2.1-.271 1.155-.629 2.28-.795 2.5-.166.22-.433 1.21-.593 2.2-.16.99-.442 1.989-.628 2.22-.813 1.012-1.172 12.376-1.172 37.054v26.358l35.539-.116c25.412-.083 35.698-.243 36.1-.563.308-.246 1.547-.572 2.751-.725 1.205-.154 2.375-.418 2.6-.587.226-.169 1.445-.546 2.71-.838 1.265-.292 2.3-.662 2.3-.822 0-.161.63-.41 1.4-.555.77-.144 1.4-.42 1.4-.612 0-.193.525-.466 1.167-.607.642-.141 1.57-.605 2.061-1.032.492-.426 1.137-.775 1.433-.775.297 0 .539-.168.539-.373s.359-.487.798-.626c.438-.139 1.023-.474 1.3-.744.276-.269.889-.757 1.362-1.083 2.862-1.975 8.14-6.857 8.14-7.53 0-.258.247-.564.549-.68.302-.116 1.15-1.055 1.886-2.087.735-1.032 1.568-2.115 1.851-2.406.283-.29.514-.785.514-1.1 0-.314.168-.571.374-.571s.602-.63.88-1.4c.279-.77.636-1.4.795-1.4.158 0 .406-.54.551-1.2.145-.66.4-1.2.568-1.2.167 0 .544-.765.838-1.7.293-.935.682-1.871.864-2.08.181-.209.33-.632.33-.94 0-.307.257-1.126.57-1.82 1.501-3.318 1.562-4.616 1.718-36.76l.152-31.5-31.72.08c-17.446.045-33.115.142-34.82.217"/><path fill="#fcac44" d="M.002 177.5c.003 29.789.289 36.551 1.601 37.863.218.218.397.739.397 1.157 0 .755.18 1.218 2.161 5.555.571 1.252 1.039 2.467 1.039 2.7 0 .234.135.426.3.426.165.001.834.991 1.486 2.2.652 1.21 1.305 2.199 1.451 2.199.146 0 .484.527.751 1.171s.739 1.269 1.049 1.388c.309.119.563.413.563.654 0 .374 6.608 7.055 8.407 8.5 1.251 1.005 3.986 2.747 5.593 3.563.55.279 1.09.614 1.2.743.418.493 7.378 3.58 8.078 3.583.287.002.987.246 1.555.542.568.296 2.548.762 4.4 1.034 1.852.272 3.68.659 4.062.858.401.21 15.319.364 35.3.364H114v-26.342c0-24.61-.37-36.33-1.162-36.845-.18-.117-.459-1.113-.62-2.213-.161-1.1-.433-2.18-.604-2.4-.171-.22-.548-1.345-.838-2.5-.29-1.155-.666-2.1-.836-2.1-.169 0-.524-.72-.787-1.6-.264-.88-.612-1.6-.773-1.6-.161 0-.417-.493-.568-1.096-.152-.603-.405-1.188-.563-1.3-.158-.112-.803-1.104-1.432-2.204-.63-1.1-1.386-2.144-1.681-2.32-.295-.176-.536-.507-.536-.736 0-.893-6.773-7.813-9.714-9.925-1.037-.745-1.886-1.482-1.886-1.638 0-.156-.585-.521-1.3-.81-.715-.289-1.39-.635-1.5-.769-.373-.455-2.994-1.909-3.981-2.209-.54-.164-1.228-.545-1.529-.846-.301-.301-.884-.547-1.295-.547-.411 0-.848-.162-.97-.36-.122-.198-1.168-.584-2.324-.858-1.155-.274-2.195-.641-2.309-.815-.115-.175-1.825-.527-3.8-.783-1.976-.255-3.905-.626-4.287-.824-.395-.205-15.346-.36-34.7-.36H0l.002 29.5m.11 134.8c.151 31.098.286 34.34 1.489 35.9.17.22.435 1.165.589 2.1.154.935.43 1.7.613 1.7.184 0 .46.585.615 1.3.264 1.213 1.693 4.247 2.214 4.699.128.11.487.786.798 1.501.311.715.701 1.3.868 1.3.166 0 .302.276.302.613 0 .336.27.716.6.842.33.127.602.436.605.688.018 1.487 10.062 11.466 13.545 13.457.578.33 1.11.735 1.183.9.074.165.316.3.539.3.222 0 .893.348 1.491.773.597.426 1.57.895 2.161 1.044.592.148 1.076.423 1.076.61 0 .188.765.564 1.7.837.935.274 1.79.6 1.9.727.451.518 6.021 2.069 8.228 2.291 1.305.131 2.5.436 2.657.678.203.313 10.467.477 35.5.569l35.215.129v-26.607c0-24.941-.372-36.529-1.189-37.051-.173-.11-.443-1.145-.6-2.3-.157-1.155-.433-2.1-.613-2.1s-.447-.706-.593-1.568c-.765-4.532-7.058-14.524-12.405-19.699-.66-.638-1.849-1.785-2.641-2.547-.793-.762-1.648-1.386-1.9-1.386-.253 0-.459-.148-.459-.329 0-.368-3.078-2.471-3.616-2.471-.189 0-.488-.227-.664-.504-.365-.575-4.477-2.696-5.226-2.696-.272 0-.494-.18-.494-.4 0-.22-.225-.401-.5-.402-.275-.002-1.01-.269-1.633-.594-.624-.325-1.884-.782-2.8-1.014-.917-.233-2.027-.593-2.467-.801-.44-.208-1.88-.568-3.2-.8-1.32-.233-3.21-.584-4.2-.782-.99-.198-16.884-.37-35.32-.383L-.04 280.8l.152 31.5"/></g></svg>