<svg xmlns="http://www.w3.org/2000/svg" width="64" height="64" viewBox="6 5 54 54"><g fill="none" fill-rule="evenodd"><path d="M0 0h64v64H0z"/><path fill="#FEC514" d="m55.725 14.707.003-.006C50.775 8.773 43.328 5 35 5 24.4 5 15.233 11.11 10.814 20h35.192c2.525 0 4.983-.87 6.915-2.497a22.506 22.506 0 0 0 2.804-2.796"/><path fill="#343741" d="M8 32c0 2.422.324 4.767.922 7H42a7 7 0 1 0 0-14H8.922A27.02 27.02 0 0 0 8 32"/><path fill="#00BFB3" d="m55.725 49.292.003.006C50.775 55.226 43.328 59 35 59c-10.6 0-19.767-6.111-24.186-15h35.192c2.525 0 4.983.87 6.915 2.496a22.506 22.506 0 0 1 2.804 2.796"/></g></svg>