<svg xmlns="http://www.w3.org/2000/svg" width="438" height="438" style="shape-rendering:geometricPrecision;text-rendering:geometricPrecision;image-rendering:optimizeQuality;fill-rule:evenodd;clip-rule:evenodd"><path fill="#09a595" d="M199.5-.5h19v22C134.502 25.379 74.335 65.046 38 140.5c-23.84 60.837-20.007 119.837 11.5 177a145.596 145.596 0 0 0-20 11c-17.015-28.378-27.015-59.045-30-92v-36C9.136 119.029 50.136 59.195 122.5 21c24.618-11.4 50.284-18.568 77-21.5Z" style="opacity:.999"/><path fill="#ea4c2e" d="M218.5-.5h18c86.73 10.568 148.23 55.568 184.5 135 9.416 23.596 14.916 47.929 16.5 73v21c-1.786 34.692-11.453 67.025-29 97a198.285 198.285 0 0 1-20-12c24.742-47.742 30.575-97.742 17.5-150C383.782 95.615 338.615 50.782 270.5 29c-17.253-4.157-34.586-6.657-52-7.5v-22Z" style="opacity:.999"/><path fill="#fefefe" d="M218.5 21.5c17.414.843 34.747 3.343 52 7.5C338.615 50.782 383.782 95.615 406 163.5c13.075 52.258 7.242 102.258-17.5 150-39.353 64.199-97.02 97.199-173 99-71.903-3.27-127.237-34.936-166-95-31.507-57.163-35.34-116.163-11.5-177 36.335-75.454 96.502-115.121 180.5-119Z" style="opacity:1"/><path fill="#343434" d="M321.5 72.5c1.725.343 2.225 1.343 1.5 3A546.666 546.666 0 0 0 312.5 95a601.698 601.698 0 0 0 11 20.5c-1.223 1.114-2.556 1.281-4 .5a232.55 232.55 0 0 0-18-9.5 724.913 724.913 0 0 0-19 9.5c-1.135.749-2.135.583-3-.5a577.615 577.615 0 0 0 10-20.5 577.025 577.025 0 0 0-10-20.5c.865-1.083 1.865-1.25 3-.5a160.932 160.932 0 0 0 18.5 9.5c7.277-3.052 14.111-6.719 20.5-11Z" style="opacity:1"/><path fill="#3b3b3b" d="M226.5 80.5c2.892 2.231 5.226 5.064 7 8.5 4.371.172 8.704.672 13 1.5l-9 6-2 13a153.742 153.742 0 0 0-7-9.5l-12-1a86.054 86.054 0 0 1 9-6.5 36.877 36.877 0 0 0 1-12Z" style="opacity:1"/><path fill="#323232" d="M215.5 188.5a576.615 576.615 0 0 1-16.5-28 32.462 32.462 0 0 1-.5-8c3.86-10.933 11.527-15.1 23-12.5a32.005 32.005 0 0 1 7.5 5.5l103 170c1.521 15.812-5.646 22.979-21.5 21.5-3.402-1.4-6.236-3.567-8.5-6.5a20572.054 20572.054 0 0 0-86.5-142Z" style="opacity:1"/><path fill="#373737" d="M295.5 149.5c3.108 2.828 5.775 6.162 8 10 4.632.828 9.298 1.328 14 1.5a183.542 183.542 0 0 0-10.5 7.5 86.578 86.578 0 0 1-1.5 13l-7-10a86.578 86.578 0 0 0-13-1.5 86.097 86.097 0 0 1 9-6.5 49.87 49.87 0 0 0 1-14Z" style="opacity:1"/><path fill="#bbb" d="M198.5 152.5a32.462 32.462 0 0 0 .5 8 576.615 576.615 0 0 0 16.5 28 22389.94 22389.94 0 0 0-86.5 142c-6.685 7.354-14.518 8.854-23.5 4.5-6.585-5.357-8.751-12.191-6.5-20.5a19243.319 19243.319 0 0 1 99.5-162Z" style="opacity:1"/><path fill="#333" d="M210.5 257.5c16.601-1.555 26.267 5.778 29 22-2.051 17.876-12.051 25.376-30 22.5-13.224-6.652-17.724-17.152-13.5-31.5 3.785-5.625 8.618-9.958 14.5-13Z" style="opacity:1"/><path fill="#f5b915" d="M388.5 313.5a198.285 198.285 0 0 0 20 12c-23.564 42.391-57.564 73.558-102 93.5-26.64 11.359-54.307 17.525-83 18.5h-11c-73.79-4.143-132.29-36.143-175.5-96a63.445 63.445 0 0 1-7.5-13 145.596 145.596 0 0 1 20-11c38.763 60.064 94.097 91.73 166 95 75.98-1.801 133.647-34.801 173-99Z" style="opacity:.999"/></svg>